<svg xmlns="http://www.w3.org/2000/svg" width="43" height="43" fill="none" viewBox="0 0 43 43"><circle cx="21.5" cy="21.5" r="21" fill="#D9D9D9" stroke="#000"/><path fill="#A1A1AA" d="M24.5 5L22.5 2L27.5 3.5L24.5 5Z"/><path fill="#A1A1AA" d="M19.5 5C18.6455 4.17043 17.8206 3.27344 15 2L10 5C10.162 8.00189 9.57991 9.41092 7.5 11.5L7.53221 11.57C8.80532 14.3382 9.52773 15.909 11 19C14.6157 21.7007 16.714 22.6472 20.5 24L19.5 20L16.5 16.5H21C22.631 13.4204 23.8635 12.0232 26.5 10C26.5175 7.20599 25.8938 6.21413 22.5 6.5C21.2948 8.13785 20.3941 8.27892 18.5 7.5L19.5 5Z"/><path fill="#A1A1AA" d="M27.5 20C25.309 19.86 24.0828 19.7593 22 18.5C21.5258 19.7847 21.688 20.3071 22.5 21C24.1163 20.9443 25.3312 20.6052 27.4934 20.0018L27.5 20Z"/><path fill="#A1A1AA" d="M24.5 22.5C23.0151 23.1914 22.2787 23.811 21 25L20.5 28C22.4676 30.1929 23.3101 31.1404 24.5 32.5C24.7757 34.6481 24.5831 35.4309 23.5 36C23.5436 38.0023 23.283 39.5318 23 42L31.5 35.5C34.5045 33.5877 35.7446 32.0835 36.5 28C33.5444 27.1345 32.3483 26.3272 31.5 24C28.7475 22.9869 27.2141 22.6924 24.5 22.5Z"/><path stroke="#000" stroke-width=".5" d="M24.5 5L22.5 2L27.5 3.5L24.5 5Z"/><path stroke="#000" stroke-width=".5" d="M19.5 5C18.6455 4.17043 17.8206 3.27344 15 2L10 5C10.162 8.00189 9.57991 9.41092 7.5 11.5L7.53221 11.57C8.80532 14.3382 9.52773 15.909 11 19C14.6157 21.7007 16.714 22.6472 20.5 24L19.5 20L16.5 16.5H21C22.631 13.4204 23.8635 12.0232 26.5 10C26.5175 7.20599 25.8938 6.21413 22.5 6.5C21.2948 8.13785 20.3941 8.27892 18.5 7.5L19.5 5Z"/><path stroke="#000" stroke-width=".5" d="M27.5 20C25.309 19.86 24.0828 19.7593 22 18.5C21.5258 19.7847 21.688 20.3071 22.5 21C24.1163 20.9443 25.3312 20.6052 27.4934 20.0018L27.5 20Z"/><path stroke="#000" stroke-width=".5" d="M24.5 22.5C23.0151 23.1914 22.2787 23.811 21 25L20.5 28C22.4676 30.1929 23.3101 31.1404 24.5 32.5C24.7757 34.6481 24.5831 35.4309 23.5 36C23.5436 38.0023 23.283 39.5318 23 42L31.5 35.5C34.5045 33.5877 35.7446 32.0835 36.5 28C33.5444 27.1345 32.3483 26.3272 31.5 24C28.7475 22.9869 27.2141 22.6924 24.5 22.5Z"/></svg>