<svg xmlns="http://www.w3.org/2000/svg" width="55" height="48" fill="none" viewBox="0 0 55 48"><path fill="#FBCF4A" stroke="#000" stroke-width=".5" d="M14.2551 7.08261V10.0826L17.2551 8.58261L21.2551 11.0826L20.2551 7.58261L24.2551 4.58261L19.7551 3.58261L18.7551 0.582611L16.2551 4.58261L12.2551 3.58261L14.2551 7.08261Z"/><path fill="#D9D9D9" stroke="#000" stroke-width=".5" d="M33.2551 17.0561C28.4787 16.2745 25.5763 16.3646 19.7551 18.0561C15.9507 20.7835 14.3718 22.8108 12.2551 27.0561C12.5687 33.5201 14.0154 36.5889 17.7551 41.5561C21.8636 45.8555 24.4432 47.3372 29.7551 47.5561C35.3746 47.1619 38.3662 46.2278 43.2551 42.5561C46.6099 37.2677 46.1831 33.6654 44.7551 27.0561C42.0708 21.7613 40.1916 19.0805 33.2551 17.0561Z"/><path fill="#FBCF4A" stroke="#000" stroke-width=".5" d="M33.2551 16.4965L36.7551 17.9965L40.7551 15.4965C44.7939 13.8172 46.7342 14.0401 49.7551 15.9965C50.3957 18.8409 50.4296 20.2775 48.7551 21.9965C43.3903 27.4739 39.654 30.2836 30.7551 34.4965C23.8989 37.1894 19.9606 38.6101 12.2551 40.4965C7.91112 41.2361 5.71247 41.166 4.25513 35.9965C7.60207 30.1769 10.0405 28.0546 14.2551 23.9965C8.91316 26.61 5.91836 28.0782 0.255127 35.4965C0.452346 38.8465 1.37495 40.2763 4.25513 41.9965C10.3821 44.473 14.2867 44.2149 21.7551 41.9965C31.0293 39.1358 35.4836 36.8063 42.7551 31.9965C48.0674 28.2177 50.5943 25.9263 54.2551 21.4965C55.0939 17.1213 54.4738 15.351 51.2551 13.4965C48.9291 11.4275 46.7303 11.2254 41.7551 11.9965C38.1126 12.7957 36.209 13.6501 33.2551 16.4965Z"/><path fill="#A1A1AA" d="M25.2551 16.5826L18.2551 18.5826C18.898 20.4398 19.4693 20.0915 20.7551 20.5826C22.4664 20.5306 23.4659 20.3167 25.2551 19.5826C25.9453 18.0205 25.9012 18.1447 25.2551 16.5826Z"/><path fill="#A1A1AA" d="M13.2551 30.0826C13.779 27.778 14.2798 26.83 15.7551 26.0826C17.2992 26.8334 17.8822 27.4672 18.2551 29.0826C17.7005 30.9921 17.2462 31.8758 15.7551 32.5826C14.463 32.3986 13.8757 31.9433 13.2551 30.0826Z"/><path fill="#A1A1AA" d="M26.7551 26.0826C24.3112 26.1572 24.6964 26.1954 24.2551 27.5826C24.7536 29.821 23.8016 29.5742 25.2551 30.0826C26.8877 30.1122 27.6403 29.9092 28.2551 28.5826C27.8054 26.4416 27.7694 27.2352 26.7551 26.0826Z"/><path fill="#A1A1AA" d="M36.2551 23.5826V26.0826H38.2551V23.5826H36.2551Z"/><path fill="#A1A1AA" d="M41.7551 35.5826C42.823 34.5707 43.5702 34.2132 45.2551 34.0826V38.5826L41.2551 43.5826C41.0831 40.6143 41.0894 38.9064 41.7551 35.5826Z"/><path stroke="#000" stroke-width=".5" d="M25.2551 16.5826L18.2551 18.5826C18.898 20.4398 19.4693 20.0915 20.7551 20.5826C22.4664 20.5306 23.4659 20.3167 25.2551 19.5826C25.9453 18.0205 25.9012 18.1447 25.2551 16.5826Z"/><path stroke="#000" stroke-width=".5" d="M13.2551 30.0826C13.779 27.778 14.2798 26.83 15.7551 26.0826C17.2992 26.8334 17.8822 27.4672 18.2551 29.0826C17.7005 30.9921 17.2462 31.8758 15.7551 32.5826C14.463 32.3986 13.8757 31.9433 13.2551 30.0826Z"/><path stroke="#000" stroke-width=".5" d="M26.7551 26.0826C24.3112 26.1572 24.6964 26.1954 24.2551 27.5826C24.7536 29.821 23.8016 29.5742 25.2551 30.0826C26.8877 30.1122 27.6403 29.9092 28.2551 28.5826C27.8054 26.4416 27.7694 27.2352 26.7551 26.0826Z"/><path stroke="#000" stroke-width=".5" d="M36.2551 23.5826V26.0826H38.2551V23.5826H36.2551Z"/><path stroke="#000" stroke-width=".5" d="M41.7551 35.5826C42.823 34.5707 43.5702 34.2132 45.2551 34.0826V38.5826L41.2551 43.5826C41.0831 40.6143 41.0894 38.9064 41.7551 35.5826Z"/></svg>