<svg xmlns="http://www.w3.org/2000/svg" width="140" height="136" fill="none" viewBox="0 0 140 136"><path fill="#D9D9D9" stroke="#000" d="M2.16283 45.019C12.4102 38.4824 20.0543 36.5887 36.1628 35.519C35.6259 41.4276 36.809 44.3624 43.1628 48.519C52.1338 52.6635 57.172 53.7068 66.1628 55.019C77.8942 55.9417 83.9935 55.0728 94.1628 51.519C99.8509 47.6366 102.025 44.5719 104.663 38.019C117.225 38.045 123.069 39.8437 132.163 45.019C140.401 50.5831 139.835 54.348 135.163 61.519C117.751 73.9973 104.104 74.7515 78.1628 73.519C55.8219 73.8888 44.0182 72.2419 23.6628 67.519C3.16049 58.7754 -2.8297 53.8533 2.16283 45.019Z"/><path fill="#A1A1AA" stroke="#000" d="M37.5 28.519L36.5 41.519C46.1859 50.5393 52.8652 52.9107 66 54.519C73.6874 54.4824 86.2641 55.4853 91.5 52.019C100.814 51.7709 101.5 41.519 104 39.519L97 28.519C86.944 36.0079 82.5395 41.1783 64.5 39.519C53.7981 38.3481 47.8489 36.6973 37.5 28.519Z"/><path fill="#D9D9D9" stroke="#000" d="M66.5 0.519043C50.1994 6.33275 42.1792 11.4257 38 28.019C49.5351 35.8179 56.9009 39.8154 68 39.019C83.2205 40.97 88.3758 37.8263 97 28.019C90.4762 10.7613 84.2665 4.40419 66.5 0.519043Z"/><circle cx="25" cy="50.019" r="4" fill="#BAA974" stroke="#000"/><circle cx="51" cy="62.019" r="4" fill="#BAA974" stroke="#000"/><circle cx="93" cy="62.019" r="4" fill="#BAA974" stroke="#000"/><circle cx="116" cy="50.019" r="4" fill="#BAA974" stroke="#000"/><path fill="#D9D9D9" stroke="#000" d="M56 91.519C44.1459 87.203 21.0321 73.0958 13.5 63.519C26.8433 68.0113 34.5181 70.3209 50 72.519C62.2962 74.2633 69.1946 74.4768 81.5 74.019C100.402 75.1414 110.495 71.988 127.867 66.5607L128 66.519C108.895 78.4384 98.0116 86.2163 76.5 92.519C68.4742 94.0722 63.9791 94.3228 56 91.519Z"/><path fill="#BAA974" d="M29.5 120.519L55.5 96.519L40.5 127.519L29.5 120.519Z"/><path fill="#BAA974" d="M57.5 135.019L65 98.519L74 135.019H57.5Z"/><path fill="#BAA974" d="M88.5 131.019L78 98.519L101.5 122.519L88.5 131.019Z"/><path stroke="#000" d="M29.5 120.519L55.5 96.519L40.5 127.519L29.5 120.519Z"/><path stroke="#000" d="M57.5 135.019L65 98.519L74 135.019H57.5Z"/><path stroke="#000" d="M88.5 131.019L78 98.519L101.5 122.519L88.5 131.019Z"/></svg>