<svg width="68" height="68" viewBox="0 0 68 68" fill="none" xmlns="http://www.w3.org/2000/svg">
<path d="M13.5 48L15.5205 50L20 53C18.0714 58.6607 15.8543 62.1925 11.0205 65C7.15853 66.7293 4.83787 66.9539 0.520508 66.5C0.402747 61.4626 0.756415 58.8956 2.52051 55C6.12882 49.8643 8.20636 48.9215 13.5 48Z" fill="#D97706" stroke="black"/>
<path d="M46 4.25191L14.5 41.2519L27.5 53.2519L65.5 18.7519C67.6245 12.2213 68.158 8.46582 65.5 1.25191C57.3653 -0.24972 53.1096 0.373746 46 4.25191Z" fill="white" stroke="black"/>
<circle cx="46.5" cy="20.5" r="6.5" fill="#A1A1AA" stroke="black"/>
<path d="M16.5 43.5L13.5 48L19.5 53L23.5 50.5L16.5 43.5Z" fill="#A1A1AA" stroke="black"/>
<circle cx="46.5" cy="20.5" r="3.5" fill="white" stroke="black"/>
<path d="M3.5 34.5C10.1974 31.0541 15.0469 29.9252 24.5 28.5L16 38.5C11.6114 36.1348 8.70549 35.534 3.5 34.5Z" fill="#A1A1AA"/>
<path d="M39 43.5L29.5 51.5C31.4145 55.835 33.3945 57.2223 35 63C37.8147 54.8461 37.8396 51.7445 39 43.5Z" fill="#A1A1AA"/>
<path d="M3.5 34.5C10.1974 31.0541 15.0469 29.9252 24.5 28.5L16 38.5C11.6114 36.1348 8.70549 35.534 3.5 34.5Z" stroke="black"/>
<path d="M39 43.5L29.5 51.5C31.4145 55.835 33.3945 57.2223 35 63C37.8147 54.8461 37.8396 51.7445 39 43.5Z" stroke="black"/>
<path d="M8.5 54.5C11.3623 51.5141 13.0143 50.8164 16 50.5C16.6424 53.7486 16.5585 55.5249 14.5 58.5C11.8529 59.9342 10.3114 60.3108 7.5 60.5C7.58966 57.3558 7.83132 56.0994 8.5 54.5Z" fill="#FBCF4A" stroke="black"/>
<path d="M27.5 53L15 41L18 37.5L30.5 50L27.5 53Z" fill="#A1A1AA" stroke="black"/>
<path d="M65 1.49999C56.9904 0.285944 52.7865 0.751585 46 4.49999L65 18.5C67.7271 11.5402 67.9594 7.79098 65 1.49999Z" fill="#A1A1AA" stroke="black"/>
</svg>
