<svg xmlns="http://www.w3.org/2000/svg" width="1920" height="1080" class="w-full h-auto rounded-lg" viewBox="0 0 1920 1080"><defs><filter id="star-glow"><feGaussianBlur result="blur" stdDeviation="2"/><feMerge><feMergeNode in="blur"/><feMergeNode in="SourceGraphic"/></feMerge></filter><radialGradient id="sky-gradient" cx="50%" cy="50%" r="70%"><stop offset="0%" stop-color="#09090b" stop-opacity=".8"/><stop offset="100%" stop-color="#09090b" stop-opacity="1"/></radialGradient></defs><rect width="1920" height="1080" fill="url(#sky-gradient)"/><line x1="482.363" x2="378.751" y1="58.76" y2="70.302" stroke="#fff" stroke-opacity=".15" stroke-width=".8"/><line x1="378.751" x2="384.471" y1="70.302" y2="279.286" stroke="#fff" stroke-opacity=".15" stroke-width=".8"/><line x1="351.699" x2="372.826" y1="1041.927" y2="860.395" stroke="#fff" stroke-opacity=".15" stroke-width=".8"/><line x1="372.826" x2="456.573" y1="860.395" y2="974.511" stroke="#fff" stroke-opacity=".15" stroke-width=".8"/><line x1="736.358" x2="770.319" y1="652.873" y2="823.118" stroke="#fff" stroke-opacity=".15" stroke-width=".8"/><circle cx="502.805" cy="661.752" r="1.28" fill="#fff" opacity=".681"/><circle cx="1733.683" cy="1048.94" r="2.618" fill="#fff" filter="url(#star-glow)" opacity=".775"/><circle cx="315.549" cy="282.785" r="1.378" fill="#fff" opacity=".438"/><circle cx="553.997" cy="598.088" r="3.34" fill="#fff" opacity=".877"/><circle cx="689.877" cy="986.432" r="3.42" fill="#fff" filter="url(#star-glow)" opacity=".953"/><circle cx="1050.707" cy="129.983" r="1.576" fill="#fff" opacity=".611"/><circle cx="757.205" cy="145.24" r="1.86" fill="#fff" opacity=".728"/><circle cx="150.541" cy="72.753" r="2.001" fill="#fff" opacity=".584"/><circle cx="207.793" cy="1078.945" r="3.208" fill="#fff" filter="url(#star-glow)" opacity=".969"/><circle cx=".043" cy="285.212" r="2.507" fill="#fff" opacity=".571"/><circle cx="482.363" cy="58.76" r="2.02" fill="#fff" opacity=".801"/><circle cx="1235.244" cy="13.892" r="3.449" fill="#fff" filter="url(#star-glow)" opacity=".66"/><circle cx="1351.839" cy="198.505" r="2.721" fill="#fff" filter="url(#star-glow)" opacity=".618"/><circle cx="1799.329" cy="383.2" r="2.275" fill="#fff" opacity=".821"/><circle cx="1874.543" cy="116.154" r="3.478" fill="#fff" opacity=".61"/><circle cx="378.751" cy="70.302" r="2.719" fill="#fff" filter="url(#star-glow)" opacity=".947"/><circle cx="483.464" cy="564.186" r="2.2" fill="#fff" opacity=".724"/><circle cx="534.712" cy="815.419" r="2.127" fill="#fff" opacity=".94"/><circle cx="527.455" cy="565.418" r="1.988" fill="#fff" opacity=".933"/><circle cx="1426.023" cy="437.917" r="3.29" fill="#fff" opacity=".862"/><circle cx="570.077" cy="588.61" r="2.087" fill="#fff" opacity=".678"/><circle cx="515.366" cy="722.108" r="1.611" fill="#fff" opacity=".741"/><circle cx="268.131" cy="623.665" r="3.455" fill="#fff" filter="url(#star-glow)" opacity=".404"/><circle cx="1636.621" cy="70.816" r="3.2" fill="#fff" opacity=".753"/><circle cx="170.133" cy="614.771" r="2.56" fill="#fff" opacity=".773"/><circle cx="1098.374" cy="741.718" r="1.441" fill="#fff" opacity=".9"/><circle cx="1377.231" cy="674.824" r="1.392" fill="#fff" opacity=".697"/><circle cx="1538.064" cy="1076.648" r="1.791" fill="#fff" opacity=".572"/><circle cx="1563.4" cy="619.484" r="1.719" fill="#fff" opacity=".483"/><circle cx="1888.046" cy="147.034" r="1.714" fill="#fff" opacity=".948"/><circle cx="1375.65" cy="923.753" r="1.668" fill="#fff" opacity=".681"/><circle cx="658.354" cy="920.919" r="1.943" fill="#fff" opacity=".411"/><circle cx="1152.963" cy="948.767" r="3.117" fill="#fff" opacity=".626"/><circle cx="64.342" cy="610.392" r="1.457" fill="#fff" opacity=".66"/><circle cx="645.539" cy="310.739" r="1.605" fill="#fff" opacity=".43"/><circle cx="1446.093" cy="523.972" r="1.117" fill="#fff" opacity=".488"/><circle cx="1135.335" cy="912.635" r="1.413" fill="#fff" opacity=".737"/><circle cx="211.691" cy="237.309" r="1.662" fill="#fff" opacity=".857"/><circle cx="911.265" cy="305.817" r="1.033" fill="#fff" opacity=".669"/><circle cx="1265.038" cy="275.717" r="1.299" fill="#fff" opacity=".953"/><circle cx="219.511" cy="937.501" r="1.08" fill="#fff" opacity=".436"/><circle cx="1305.827" cy="87.657" r="1.724" fill="#fff" opacity=".935"/><circle cx="760.918" cy="372.385" r="1" fill="#fff" opacity=".844"/><circle cx="205.104" cy="212.875" r="3.27" fill="#fff" opacity=".903"/><circle cx="1826.981" cy="77.973" r="1.616" fill="#fff" opacity=".956"/><circle cx="771.425" cy="159.584" r="1.644" fill="#fff" opacity=".586"/><circle cx="855.943" cy="255.402" r="2.821" fill="#fff" opacity=".578"/><circle cx="384.471" cy="279.286" r="2.2" fill="#fff" opacity=".536"/><circle cx="1762.203" cy="108.59" r="2.47" fill="#fff" opacity=".761"/><circle cx="543.636" cy="1044.258" r="1.95" fill="#fff" opacity=".734"/><circle cx="1428.531" cy="168.96" r="2.113" fill="#fff" opacity=".779"/><circle cx="436.945" cy="783.725" r="2.674" fill="#fff" opacity=".933"/><circle cx="1835.257" cy="943.333" r="1.368" fill="#fff" opacity=".799"/><circle cx="1180.065" cy="303.828" r="1.751" fill="#fff" opacity=".848"/><circle cx="351.699" cy="1041.927" r="2.202" fill="#fff" opacity=".735"/><circle cx="1618.416" cy="276.621" r="1.459" fill="#fff" opacity=".477"/><circle cx="372.826" cy="860.395" r="3.342" fill="#fff" filter="url(#star-glow)" opacity=".906"/><circle cx="736.358" cy="652.873" r="2.599" fill="#fff" opacity=".784"/><circle cx="919.846" cy="519.018" r="3.091" fill="#fff" filter="url(#star-glow)" opacity=".863"/><circle cx="608.634" cy="156.226" r="2.525" fill="#fff" opacity=".881"/><circle cx="1573.467" cy="682.566" r="2.753" fill="#fff" opacity=".946"/><circle cx="1910.037" cy="456.492" r="1.17" fill="#fff" opacity=".723"/><circle cx="1644.939" cy="440.668" r="2.37" fill="#fff" filter="url(#star-glow)" opacity=".617"/><circle cx="1182.51" cy="114.656" r="2.612" fill="#fff" opacity=".669"/><circle cx="8.655" cy="408.245" r="1.42" fill="#fff" opacity=".708"/><circle cx="934.827" cy="1010.595" r="3.432" fill="#fff" opacity=".755"/><circle cx="551.221" cy="821.802" r="1.642" fill="#fff" opacity=".693"/><circle cx="456.573" cy="974.511" r="1.494" fill="#fff" opacity=".503"/><circle cx="806.091" cy="213.117" r="1.562" fill="#fff" opacity=".757"/><circle cx="830.688" cy="329.747" r="3.099" fill="#fff" filter="url(#star-glow)" opacity=".517"/><circle cx="574.596" cy="947.578" r="2.046" fill="#fff" opacity=".644"/><circle cx="770.319" cy="823.118" r="1.939" fill="#fff" opacity=".951"/><circle cx="1269.11" cy="434.046" r="1.563" fill="#fff" opacity=".906"/><circle cx="512.486" cy="146.254" r="2.983" fill="#fff" opacity=".584"/><circle cx="292.558" cy="103.604" r="3.287" fill="#fff" opacity=".785"/><circle cx="885.885" cy="449.039" r="2.14" fill="#fff" opacity=".878"/><circle cx="1569.146" cy="486.292" r="1.119" fill="#fff" opacity=".536"/><circle cx="1286.363" cy="479.287" r="2.341" fill="#fff" opacity=".756"/><circle cx="893.798" cy="1066.943" r="2.585" fill="#fff" opacity=".78"/><circle cx="1758.677" cy="287.63" r="2.755" fill="#fff" opacity=".766"/><circle cx="1453.955" cy="875.158" r="2.677" fill="#fff" filter="url(#star-glow)" opacity=".637"/><circle cx="1050.078" cy="267.949" r="3.22" fill="#fff" filter="url(#star-glow)" opacity=".734"/><circle cx="1885.613" cy="990.149" r="1.731" fill="#fff" opacity=".597"/><circle cx="1880.901" cy="628.226" r="2.902" fill="#fff" opacity=".478"/><circle cx="1788.179" cy="587.574" r="2.637" fill="#fff" opacity=".678"/><circle cx="1530.645" cy="674.278" r="2.487" fill="#fff" filter="url(#star-glow)" opacity=".965"/><circle cx="1876.6" cy="233.578" r="2.181" fill="#fff" opacity=".826"/><circle cx="713.121" cy="243.218" r="2.058" fill="#fff" opacity=".633"/><circle cx="1316.526" cy="667.887" r="1.52" fill="#fff" opacity=".42"/><circle cx="1388.474" cy="910.385" r="2.453" fill="#fff" opacity=".817"/></svg>