<svg viewBox="0 0 1920 1080" width="1920" height="1080" xmlns="http://www.w3.org/2000/svg" class="w-full h-auto rounded-lg"><defs><filter id="star-glow"><feGaussianBlur stdDeviation="2" result="blur"/><feMerge><feMergeNode in="blur"/><feMergeNode in="SourceGraphic"/></feMerge></filter><radialGradient id="sky-gradient" cx="50%" cy="50%" r="70%"><stop offset="0%" stop-color="#09090b" stop-opacity="0.8"/><stop offset="100%" stop-color="#09090b" stop-opacity="1"/></radialGradient></defs><rect width="1920" height="1080" fill="url(#sky-gradient)"/><line x1="482.36308202147484" y1="58.759880689904094" x2="378.75103890895844" y2="70.30189362354577" stroke="#ffffff" stroke-opacity="0.15" stroke-width="0.8"/><line x1="378.75103890895844" y1="70.30189362354577" x2="384.47103783488274" y2="279.2858013231307" stroke="#ffffff" stroke-opacity="0.15" stroke-width="0.8"/><line x1="351.6992224752903" y1="1041.9266745261848" x2="372.82613173127174" y2="860.3947266563773" stroke="#ffffff" stroke-opacity="0.15" stroke-width="0.8"/><line x1="372.82613173127174" y1="860.3947266563773" x2="456.57307997345924" y2="974.5111703965813" stroke="#ffffff" stroke-opacity="0.15" stroke-width="0.8"/><line x1="736.3575075566769" y1="652.8725345246494" x2="770.3187136352062" y2="823.1175676546991" stroke="#ffffff" stroke-opacity="0.15" stroke-width="0.8"/><circle cx="502.8045170009136" cy="661.7517581395805" r="1.279975684825331" fill="#ffffff" opacity="0.6813142613973469"/><circle cx="1733.6832305788994" cy="1048.9403256308287" r="2.617753109894693" fill="#ffffff" opacity="0.7746968276798725" filter="url(#star-glow)"/><circle cx="315.54857075214386" cy="282.78532695025206" r="1.3778461570618674" fill="#ffffff" opacity="0.43820005990564825"/><circle cx="553.9970956742764" cy="598.088194783777" r="3.3402741027530283" fill="#ffffff" opacity="0.8773411044385284"/><circle cx="689.8770985007286" cy="986.4320791326463" r="3.4204084766097367" fill="#ffffff" opacity="0.9532635855488479" filter="url(#star-glow)"/><circle cx="1050.7066923379898" cy="129.98275528661907" r="1.5763354449300095" fill="#ffffff" opacity="0.6111992694903166"/><circle cx="757.2052569687366" cy="145.24006566032767" r="1.8599413139745593" fill="#ffffff" opacity="0.7283997086342424"/><circle cx="150.5407901108265" cy="72.75274383835495" r="2.0005005612038076" fill="#ffffff" opacity="0.5843927321024239"/><circle cx="207.7926340699196" cy="1078.945082668215" r="3.2084501473000273" fill="#ffffff" opacity="0.9685975086409598" filter="url(#star-glow)"/><circle cx="0.04281923174858093" cy="285.2118036802858" r="2.5073513303650543" fill="#ffffff" opacity="0.5713883388321847"/><circle cx="482.36308202147484" cy="58.759880689904094" r="2.020080008311197" fill="#ffffff" opacity="0.8010121182072908"/><circle cx="1235.2437056601048" cy="13.892012508586049" r="3.4492141196969897" fill="#ffffff" opacity="0.659891877649352" filter="url(#star-glow)"/><circle cx="1351.8386802077293" cy="198.50513809360564" r="2.721252417191863" fill="#ffffff" opacity="0.6177504564635455" filter="url(#star-glow)"/><circle cx="1799.3292416632175" cy="383.19995454512537" r="2.274615963920951" fill="#ffffff" opacity="0.8213382912334055"/><circle cx="1874.5426198840141" cy="116.1535275913775" r="3.4783384148031473" fill="#ffffff" opacity="0.6098986097611487"/><circle cx="378.75103890895844" cy="70.30189362354577" r="2.7188300646375865" fill="#ffffff" opacity="0.9474603697191923" filter="url(#star-glow)"/><circle cx="483.4642294049263" cy="564.1864587832242" r="2.1998804460745305" fill="#ffffff" opacity="0.7244959688279777"/><circle cx="534.7121362388134" cy="815.4188566468656" r="2.1268342612311244" fill="#ffffff" opacity="0.9398940528277308"/><circle cx="527.4548242986202" cy="565.4179281648248" r="1.9879110497422516" fill="#ffffff" opacity="0.9332958139013499"/><circle cx="1426.0233306884766" cy="437.91740192100406" r="3.2899133170722052" fill="#ffffff" opacity="0.8622332848608494"/><circle cx="570.0768135488033" cy="588.6096357554197" r="2.086706611677073" fill="#ffffff" opacity="0.6779833879321814"/><circle cx="515.3664788603783" cy="722.1075869724154" r="1.6114065600559115" fill="#ffffff" opacity="0.7405978242866695"/><circle cx="268.13090711832047" cy="623.6653694696724" r="3.455152702750638" fill="#ffffff" opacity="0.40356301055289806" filter="url(#star-glow)"/><circle cx="1636.6205236315727" cy="70.81596873700619" r="3.1998181368689984" fill="#ffffff" opacity="0.7530540605075657"/><circle cx="170.13252764940262" cy="614.7712133266032" r="2.559999625897035" fill="#ffffff" opacity="0.7734770056791604"/><circle cx="1098.3739390969276" cy="741.7184233199805" r="1.441305548301898" fill="#ffffff" opacity="0.9000398649834096"/><circle cx="1377.2310362756252" cy="674.8238955438137" r="1.3920750791439787" fill="#ffffff" opacity="0.6971780300140381"/><circle cx="1538.0639442801476" cy="1076.648102318868" r="1.7914841058664024" fill="#ffffff" opacity="0.5717856777831912"/><circle cx="1563.4002882242203" cy="619.4840395543724" r="1.7194152369629592" fill="#ffffff" opacity="0.482757951784879"/><circle cx="1888.04571300745" cy="147.03397038392723" r="1.713912000064738" fill="#ffffff" opacity="0.9479047856293619"/><circle cx="1375.6500743329525" cy="923.7530459929258" r="1.6677149556344375" fill="#ffffff" opacity="0.681210096552968"/><circle cx="658.3539824187756" cy="920.9185275714844" r="1.942873764433898" fill="#ffffff" opacity="0.4105412510223687"/><circle cx="1152.962857335806" cy="948.7674818281084" r="3.11711679934524" fill="#ffffff" opacity="0.6261313877534121"/><circle cx="64.341521859169" cy="610.3923895116895" r="1.456681897630915" fill="#ffffff" opacity="0.6604631578549742"/><circle cx="645.5390024185181" cy="310.73877772316337" r="1.605470270384103" fill="#ffffff" opacity="0.4295184645801783"/><circle cx="1446.093192100525" cy="523.9715081825852" r="1.1167198456823826" fill="#ffffff" opacity="0.4884503676556051"/><circle cx="1135.3353475034237" cy="912.6348041463643" r="1.4125026799738407" fill="#ffffff" opacity="0.7365243871230632"/><circle cx="211.69067054986954" cy="237.30947021394968" r="1.6619712960673496" fill="#ffffff" opacity="0.8569130905903876"/><circle cx="911.2653239071369" cy="305.8167698699981" r="1.03339376358781" fill="#ffffff" opacity="0.668667836720124"/><circle cx="1265.0381603837013" cy="275.71666080504656" r="1.2994128060527146" fill="#ffffff" opacity="0.9529372990131378"/><circle cx="219.51102554798126" cy="937.500954978168" r="1.0798694894183427" fill="#ffffff" opacity="0.4359124166890979"/><circle cx="1305.8266451954842" cy="87.65741027891636" r="1.7243365497561172" fill="#ffffff" opacity="0.9350081900600344"/><circle cx="760.918103903532" cy="372.3851723782718" r="1.000484989141114" fill="#ffffff" opacity="0.8435324943158775"/><circle cx="205.10351836681366" cy="212.87480768747628" r="3.269554515951313" fill="#ffffff" opacity="0.903152872947976"/><circle cx="1826.9811080396175" cy="77.97296497039497" r="1.616422546445392" fill="#ffffff" opacity="0.9555018189828843"/><circle cx="771.4245566725731" cy="159.58444495685399" r="1.6436456309165806" fill="#ffffff" opacity="0.586366496514529"/><circle cx="855.9428389370441" cy="255.40179538540542" r="2.8214041995815933" fill="#ffffff" opacity="0.5784291699063033"/><circle cx="384.47103783488274" cy="279.2858013231307" r="2.1999514210037887" fill="#ffffff" opacity="0.5359742033760995"/><circle cx="1762.2026216983795" cy="108.59036302194" r="2.4702379249501973" fill="#ffffff" opacity="0.7608293497003615"/><circle cx="543.6364334821701" cy="1044.257510304451" r="1.9501090686535463" fill="#ffffff" opacity="0.7343617073260248"/><circle cx="1428.5308595001698" cy="168.96022240631282" r="2.1133280961075798" fill="#ffffff" opacity="0.7792092867195606"/><circle cx="436.9448786973953" cy="783.7248478084803" r="2.674247256014496" fill="#ffffff" opacity="0.9331546851433814"/><circle cx="1835.256820768118" cy="943.3333458937705" r="1.3682666044915095" fill="#ffffff" opacity="0.7991379623766989"/><circle cx="1180.065279006958" cy="303.82842167280614" r="1.7511122786672786" fill="#ffffff" opacity="0.8475974478758872"/><circle cx="351.6992224752903" cy="1041.9266745261848" r="2.2016408395720646" fill="#ffffff" opacity="0.7349119523074479"/><circle cx="1618.4158515930176" cy="276.6207498963922" r="1.4591796442400664" fill="#ffffff" opacity="0.4771427965257317"/><circle cx="372.82613173127174" cy="860.3947266563773" r="3.3417010839330032" fill="#ffffff" opacity="0.9055727901402861" filter="url(#star-glow)"/><circle cx="736.3575075566769" cy="652.8725345246494" r="2.599028928903863" fill="#ffffff" opacity="0.7839822488836945"/><circle cx="919.8462545871735" cy="519.0180317312479" r="3.090605307603255" fill="#ffffff" opacity="0.8632754974067212" filter="url(#star-glow)"/><circle cx="608.6339937150478" cy="156.22560907155275" r="2.5254315378842875" fill="#ffffff" opacity="0.881385803129524"/><circle cx="1573.4667621552944" cy="682.5662280712277" r="2.753207017900422" fill="#ffffff" opacity="0.9459238971583546"/><circle cx="1910.0369243323803" cy="456.4916001074016" r="1.1701162586687133" fill="#ffffff" opacity="0.7231061612721532"/><circle cx="1644.9389751255512" cy="440.66783434711397" r="2.370259976829402" fill="#ffffff" opacity="0.6172250360250473" filter="url(#star-glow)"/><circle cx="1182.5095488131046" cy="114.65580889955163" r="2.612238070811145" fill="#ffffff" opacity="0.6685119521804155"/><circle cx="8.655045926570892" cy="408.24466480873525" r="1.4201278288383037" fill="#ffffff" opacity="0.7077434119768441"/><circle cx="934.8274478316307" cy="1010.5947991088033" r="3.431637840345502" fill="#ffffff" opacity="0.7554172542877495"/><circle cx="551.221054494381" cy="821.8021105974913" r="1.6417813012376428" fill="#ffffff" opacity="0.6927419833373278"/><circle cx="456.57307997345924" cy="974.5111703965813" r="1.4940296686254442" fill="#ffffff" opacity="0.5026686532888561"/><circle cx="806.0913527011871" cy="213.1169744487852" r="1.5619359412230551" fill="#ffffff" opacity="0.7569278019014747"/><circle cx="830.6875097751617" cy="329.74658098071814" r="3.0988931582542136" fill="#ffffff" opacity="0.5169716577511281" filter="url(#star-glow)"/><circle cx="574.5960232615471" cy="947.5779062043875" r="2.046045538969338" fill="#ffffff" opacity="0.6438600021414459"/><circle cx="770.3187136352062" cy="823.1175676546991" r="1.938689645845443" fill="#ffffff" opacity="0.9506260128226132"/><circle cx="1269.1096656024456" cy="434.04571174643934" r="1.5625237856293097" fill="#ffffff" opacity="0.9063655369915068"/><circle cx="512.4863447248936" cy="146.2538813240826" r="2.983018430764787" fill="#ffffff" opacity="0.5840559955686331"/><circle cx="292.5580210983753" cy="103.60392909497023" r="3.2869942360557616" fill="#ffffff" opacity="0.7852144610136748"/><circle cx="885.8848258852959" cy="449.03947999700904" r="2.1395007354440168" fill="#ffffff" opacity="0.8776825447566807"/><circle cx="1569.1460309922695" cy="486.29238420166075" r="1.1191535737598315" fill="#ffffff" opacity="0.536102062324062"/><circle cx="1286.3625392317772" cy="479.2874790262431" r="2.3408733357209712" fill="#ffffff" opacity="0.7562512497417628"/><circle cx="893.7976567447186" cy="1066.9425353687257" r="2.585170933394693" fill="#ffffff" opacity="0.7798285136464984"/><circle cx="1758.676866441965" cy="287.63017469085753" r="2.754678343422711" fill="#ffffff" opacity="0.7656779353506864"/><circle cx="1453.95484238863" cy="875.1576409488916" r="2.676882804604247" fill="#ffffff" opacity="0.6368741302285343" filter="url(#star-glow)"/><circle cx="1050.0779534876347" cy="267.9493666347116" r="3.2201663319719955" fill="#ffffff" opacity="0.733881148789078" filter="url(#star-glow)"/><circle cx="1885.6131157279015" cy="990.1490452419966" r="1.7305147283477709" fill="#ffffff" opacity="0.5974147599190474"/><circle cx="1880.90129211545" cy="628.2259298767895" r="2.9018023187527433" fill="#ffffff" opacity="0.47781274653971195"/><circle cx="1788.1786859035492" cy="587.5736533943564" r="2.637128233560361" fill="#ffffff" opacity="0.6781929763033987"/><circle cx="1530.6451950967312" cy="674.2779306415468" r="2.4865325955906883" fill="#ffffff" opacity="0.9646010461263359" filter="url(#star-glow)"/><circle cx="1876.5999202430248" cy="233.57813986949623" r="2.1812528764130548" fill="#ffffff" opacity="0.8257342602591962"/><circle cx="713.1210699677467" cy="243.21793746203184" r="2.0576367791509256" fill="#ffffff" opacity="0.633046682504937"/><circle cx="1316.526471823454" cy="667.887313272804" r="1.5200482707004994" fill="#ffffff" opacity="0.4195325942710042"/><circle cx="1388.474164456129" cy="910.3851744253188" r="2.452690990990959" fill="#ffffff" opacity="0.8174539006315171"/></svg>